<svg width="21" height="25" viewBox="0 0 21 25" fill="none" xmlns="http://www.w3.org/2000/svg">
<path d="M17.1778 11.4727H3.02222C1.90538 11.4727 1 12.4462 1 13.6472V21.258C1 22.4589 1.90538 23.4325 3.02222 23.4325H17.1778C18.2946 23.4325 19.2 22.4589 19.2 21.258V13.6472C19.2 12.4462 18.2946 11.4727 17.1778 11.4727Z" stroke="black" stroke-width="2" stroke-linecap="round" stroke-linejoin="round"/>
<path d="M5.04443 11.4726V7.12355C5.04443 5.68175 5.57707 4.29901 6.52517 3.27951C7.47327 2.26001 8.75917 1.68726 10.1 1.68726C11.4408 1.68726 12.7267 2.26001 13.6748 3.27951C14.6229 4.29901 15.1555 5.68175 15.1555 7.12355V11.4726" stroke="black" stroke-width="2" stroke-linecap="round" stroke-linejoin="round"/>
</svg>
