<svg width="30" height="30" viewBox="0 0 30 30" fill="none" xmlns="http://www.w3.org/2000/svg">
<rect width="28.1818" height="28.1818" transform="translate(0.90918 0.909119)" fill="#152852"/>
<path d="M9.12891 9.28376V7.86967C9.12891 5.72377 9.12891 4.65082 9.8185 4.05274C10.5081 3.45466 11.5703 3.60639 13.6946 3.90987L20.4168 4.87019C22.873 5.22107 24.101 5.3965 24.8347 6.2424C25.5683 7.08829 25.5683 8.32882 25.5683 10.8099V19.1902C25.5683 21.6713 25.5683 22.9118 24.8347 23.7577C24.101 24.6036 22.873 24.779 20.4168 25.1299L13.6946 26.0902C11.5703 26.3937 10.5081 26.5454 9.8185 25.9474C9.12891 25.3493 9.12891 24.2763 9.12891 22.1304V20.9487" stroke="white" stroke-width="3"/>
<path d="M19.697 15.0001L20.8683 14.063L21.618 15.0001L20.8683 15.9371L19.697 15.0001ZM5.60611 16.5001C4.77768 16.5001 4.10611 15.8285 4.10611 15.0001C4.10611 14.1716 4.77768 13.5001 5.60611 13.5001V16.5001ZM16.1714 8.1918L20.8683 14.063L18.5257 15.9371L13.8287 10.0659L16.1714 8.1918ZM20.8683 15.9371L16.1714 21.8083L13.8287 19.9342L18.5257 14.063L20.8683 15.9371ZM19.697 16.5001H5.60611V13.5001H19.697V16.5001Z" fill="white"/>
</svg>
