<svg width="11" height="13" viewBox="0 0 11 13" fill="none" xmlns="http://www.w3.org/2000/svg">
<path d="M6.5 1H2.1C1.80826 1 1.52847 1.11589 1.32218 1.32218C1.11589 1.52847 1 1.80826 1 2.1V10.9C1 11.1917 1.11589 11.4715 1.32218 11.6778C1.52847 11.8841 1.80826 12 2.1 12H8.7C8.99174 12 9.27153 11.8841 9.47782 11.6778C9.68411 11.4715 9.8 11.1917 9.8 10.9V4.3L6.5 1Z" stroke="black" stroke-linecap="round" stroke-linejoin="round"/>
<path d="M6.5 1V4.3H9.8" stroke="black" stroke-linecap="round" stroke-linejoin="round"/>
<path d="M7.59995 7.04999H3.19995" stroke="black" stroke-linecap="round" stroke-linejoin="round"/>
<path d="M7.59995 9.25H3.19995" stroke="black" stroke-linecap="round" stroke-linejoin="round"/>
<path d="M4.29995 4.84998H3.74995H3.19995" stroke="black" stroke-linecap="round" stroke-linejoin="round"/>
</svg>
